<svg xmlns="http://www.w3.org/2000/svg" viewBox="0 0 32 32" width="32" height="32">
  <rect width="32" height="32" rx="6" fill="#F7A600"/>
  <path fill="#000" d="M8 8h6.5c1.5 0 2.7.4 3.5 1.1.8.7 1.2 1.6 1.2 2.7 0 .8-.2 1.4-.6 2-.4.5-.9.9-1.5 1.1.8.2 1.5.6 2 1.2.5.6.8 1.4.8 2.3 0 1.2-.4 2.2-1.3 3C17.3 22 16 22.5 14 22.5H8V8zm2 5.5h4.2c.9 0 1.5-.2 2-.6.5-.4.7-.9.7-1.5 0-.7-.2-1.2-.7-1.5-.5-.4-1.1-.5-2-.5H10V13.5zm0 6.5h4.4c1 0 1.7-.2 2.2-.6.5-.4.8-1 .8-1.7 0-.7-.3-1.3-.8-1.7-.5-.4-1.3-.6-2.3-.6H10V20z"/>
</svg>
