<svg xmlns="http://www.w3.org/2000/svg" viewBox="0 0 32 32" width="32" height="32">
  <rect width="32" height="32" rx="6" fill="#E53B42"/>
  <path fill="#fff" d="M22 14.5h-7v2.5h4.3c-.3 1.2-1 2.1-1.9 2.7-.9.6-2 .9-3.2.9-1.7 0-3-.5-4-1.6-1-1-1.5-2.4-1.5-4.1 0-1.6.5-3 1.6-4 1-.9 2.4-1.4 4-1.4 1 0 1.9.2 2.7.7.8.5 1.4 1.1 1.8 2l2.8-1.1C20.9 9.8 20 8.8 18.8 8c-1.2-.8-2.7-1.2-4.5-1.2-2.4 0-4.5.8-6 2.4-1.5 1.5-2.3 3.5-2.3 5.8 0 2.4.8 4.3 2.3 5.8 1.5 1.5 3.5 2.2 6 2.2 2.3 0 4.2-.7 5.7-2.2C21.4 19.4 22 17.5 22 15v-.5z"/>
</svg>
